<svg id="visual" viewBox="0 0 900 675" width="900" height="675" xmlns="http://www.w3.org/2000/svg" xmlns:xlink="http://www.w3.org/1999/xlink" version="1.1"><path d="M0 360L50 362.2C100 364.3 200 368.7 300 364.5C400 360.3 500 347.7 600 344C700 340.3 800 345.7 850 348.3L900 351L900 676L850 676C800 676 700 676 600 676C500 676 400 676 300 676C200 676 100 676 50 676L0 676Z" fill="#740c0c"></path><path d="M0 398L50 406.7C100 415.3 200 432.7 300 436C400 439.3 500 428.7 600 430.3C700 432 800 446 850 453L900 460L900 676L850 676C800 676 700 676 600 676C500 676 400 676 300 676C200 676 100 676 50 676L0 676Z" fill="#b8070c"></path><path d="M0 521L50 521.2C100 521.3 200 521.7 300 530.8C400 540 500 558 600 558.3C700 558.7 800 541.3 850 532.7L900 524L900 676L850 676C800 676 700 676 600 676C500 676 400 676 300 676C200 676 100 676 50 676L0 676Z" fill="#ff0000"></path></svg>