<svg id="visual" viewBox="0 0 450 400" width="450" height="400" xmlns="http://www.w3.org/2000/svg" xmlns:xlink="http://www.w3.org/1999/xlink" version="1.1"><path d="M0 266L37.5 252.2C75 238.3 150 210.7 225 209.7C300 208.7 375 234.3 412.5 247.2L450 260L450 401L412.5 401C375 401 300 401 225 401C150 401 75 401 37.5 401L0 401Z" fill="#740c0c"></path><path d="M0 305L37.5 304.8C75 304.7 150 304.3 225 293.7C300 283 375 262 412.5 251.5L450 241L450 401L412.5 401C375 401 300 401 225 401C150 401 75 401 37.5 401L0 401Z" fill="#b8070c"></path><path d="M0 350L37.5 341.8C75 333.7 150 317.3 225 308.2C300 299 375 297 412.5 296L450 295L450 401L412.5 401C375 401 300 401 225 401C150 401 75 401 37.5 401L0 401Z" fill="#ff0000"></path></svg>